<svg xmlns="http://www.w3.org/2000/svg" viewBox="0 0 1200 1200" role="img" aria-labelledby="title desc">
  <title id="title">Animetro Education Consulting primary logo</title>
  <desc id="desc">Primary luxury education consulting crest with laurel wreath, double ring, A infinity monogram, English wordmark, open book, and Chinese brand name.</desc>
  <rect width="1200" height="1200" fill="none"/>
  <g>
    <path d="M180 890 C70 710 85 475 225 295" stroke="#B58928" stroke-width="10" fill="none"/>
    <ellipse cx="180" cy="820" rx="18" ry="55" transform="rotate(-48 180 820)" fill="#B58928" stroke="#081A34" stroke-width="3"/>
    <ellipse cx="145" cy="745" rx="18" ry="55" transform="rotate(-36 145 745)" fill="#B58928" stroke="#081A34" stroke-width="3"/>
    <ellipse cx="124" cy="666" rx="18" ry="55" transform="rotate(-24 124 666)" fill="#B58928" stroke="#081A34" stroke-width="3"/>
    <ellipse cx="120" cy="585" rx="18" ry="55" transform="rotate(-12 120 585)" fill="#B58928" stroke="#081A34" stroke-width="3"/>
    <ellipse cx="135" cy="505" rx="18" ry="55" transform="rotate(2 135 505)" fill="#B58928" stroke="#081A34" stroke-width="3"/>
    <ellipse cx="165" cy="430" rx="18" ry="55" transform="rotate(16 165 430)" fill="#B58928" stroke="#081A34" stroke-width="3"/>
    <ellipse cx="205" cy="365" rx="18" ry="55" transform="rotate(30 205 365)" fill="#B58928" stroke="#081A34" stroke-width="3"/>
    <ellipse cx="255" cy="310" rx="18" ry="55" transform="rotate(42 255 310)" fill="#B58928" stroke="#081A34" stroke-width="3"/>
  </g>
  <g>
    <path d="M1020 890 C1130 710 1115 475 975 295" stroke="#B58928" stroke-width="10" fill="none"/>
    <ellipse cx="1020" cy="820" rx="18" ry="55" transform="rotate(48 1020 820)" fill="#B58928" stroke="#081A34" stroke-width="3"/>
    <ellipse cx="1055" cy="745" rx="18" ry="55" transform="rotate(36 1055 745)" fill="#B58928" stroke="#081A34" stroke-width="3"/>
    <ellipse cx="1076" cy="666" rx="18" ry="55" transform="rotate(24 1076 666)" fill="#B58928" stroke="#081A34" stroke-width="3"/>
    <ellipse cx="1080" cy="585" rx="18" ry="55" transform="rotate(12 1080 585)" fill="#B58928" stroke="#081A34" stroke-width="3"/>
    <ellipse cx="1065" cy="505" rx="18" ry="55" transform="rotate(-2 1065 505)" fill="#B58928" stroke="#081A34" stroke-width="3"/>
    <ellipse cx="1035" cy="430" rx="18" ry="55" transform="rotate(-16 1035 430)" fill="#B58928" stroke="#081A34" stroke-width="3"/>
    <ellipse cx="995" cy="365" rx="18" ry="55" transform="rotate(-30 995 365)" fill="#B58928" stroke="#081A34" stroke-width="3"/>
    <ellipse cx="945" cy="310" rx="18" ry="55" transform="rotate(-42 945 310)" fill="#B58928" stroke="#081A34" stroke-width="3"/>
  </g>
  <circle cx="600" cy="565" r="350" fill="#FFFFFF" stroke="#B58928" stroke-width="12"/>
  <circle cx="600" cy="565" r="318" fill="none" stroke="#081A34" stroke-width="10"/>
  <circle cx="600" cy="565" r="296" fill="none" stroke="#B58928" stroke-width="4"/>
  <g transform="translate(280 105) scale(1)" fill="none" stroke-linecap="round" stroke-linejoin="round">
    <path d="M190 450 L312 165 L434 450" stroke="#081A34" stroke-width="34"/>
    <path d="M242 360 H382" stroke="#081A34" stroke-width="24"/>
    <path d="M328 314 C376 246 438 246 486 314 C438 382 376 382 328 314 C280 246 218 246 170 314 C218 382 280 382 328 314 Z" stroke="#B58928" stroke-width="25"/>
    <path d="M170 492 H470" stroke="#B58928" stroke-width="12"/>
    <circle cx="320" cy="492" r="13" fill="#B58928" stroke="none"/>
  </g>
  <text x="600" y="715" text-anchor="middle" fill="#081A34" font-family="Cinzel, Cormorant Garamond, Trajan Pro, Libre Baskerville, Baskerville, Georgia, serif" font-size="74" font-weight="600" letter-spacing="8">ANIMETRO</text>
  <path d="M350 772 H455 M745 772 H850" stroke="#B58928" stroke-width="5"/>
  <text x="600" y="790" text-anchor="middle" fill="#B58928" font-family="Cormorant Garamond, Libre Baskerville, Baskerville, Georgia, serif" font-size="34" letter-spacing="8">CONSULTING</text>
  <g transform="translate(600 890) scale(0.55)" fill="none" stroke-linecap="round" stroke-linejoin="round">
    <path d="M-12 54 C-70 18 -122 22 -174 38 V-50 C-112 -38 -56 -24 -12 18 Z" fill="#FFFDF8" stroke="#B58928" stroke-width="8"/>
    <path d="M12 54 C70 18 122 22 174 38 V-50 C112 -38 56 -24 12 18 Z" fill="#FFFDF8" stroke="#B58928" stroke-width="8"/>
    <path d="M0 56 V16" stroke="#B58928" stroke-width="7"/>
    <path d="M-178 58 C-118 72 -60 80 0 58 C60 80 118 72 178 58" stroke="#081A34" stroke-width="5"/>
  </g>
  <text x="600" y="1060" text-anchor="middle" fill="#B58928" font-family="Cormorant Garamond, Libre Baskerville, Baskerville, Georgia, serif" font-size="34" letter-spacing="6">EDUCATION CONSULTING</text>
  <text x="600" y="1122" text-anchor="middle" fill="#081A34" font-family="Noto Serif CJK SC, Songti SC, STSong, serif" font-size="38" letter-spacing="3">艾美加教育顾问</text>
</svg>
